<svg id="Capa_2" data-name="Capa 2" xmlns="http://www.w3.org/2000/svg" viewBox="0 0 1000 1000"><title>Icono Remito de compra</title><path d="M561.57,40a30.24,30.24,0,0,1,21.28,8.85l249.43,251A29.83,29.83,0,0,1,841,321V864.73A95.38,95.38,0,0,1,745.73,960H254.27A95.38,95.38,0,0,1,159,864.73V135.27A95.38,95.38,0,0,1,254.27,40h307.3m0-40H254.27A135.27,135.27,0,0,0,119,135.27V864.73A135.27,135.27,0,0,0,254.27,1000H745.73A135.27,135.27,0,0,0,881,864.73V321a70,70,0,0,0-20.35-49.35l-249.43-251A70,70,0,0,0,561.57,0Z"/><path d="M612,77.39,798.25,267H656.88A44.93,44.93,0,0,1,612,222.12V77.39M595.32,13A23.12,23.12,0,0,0,572,36.19V222.12A84.88,84.88,0,0,0,656.88,307H838.42c20.53,0,30.9-24.73,16.52-39.37L611.66,20a22.64,22.64,0,0,0-16.34-7Z"/><path d="M506.44,350a26,26,0,0,0-26,26V423.4h-13.5c-47.24.31-85.44,41.16-85.44,91.49,0,46.13,32.09,84.3,73.83,90.58,0,0,0,0,0,0a.6.6,0,0,0,.19.06,80.08,80.08,0,0,0,12,.89h61.78c21.88,0,40.38,17.91,40.22,39.79A39.49,39.49,0,0,1,535.31,685H422.45q-1,0-1.95.09a22,22,0,0,0-20,21.86v6.81A23.23,23.23,0,0,0,423.74,737h56.7v49a26,26,0,0,0,52,0V737h7.66A82.9,82.9,0,0,0,588,715.75C606.67,699,618.5,673.91,618.5,645.9c0-46.13-32.09-84.3-73.83-90.58-2.41-.37-4.86-.63-7.33-.77-1.6-.1-3.22-.15-4.84-.15H470a39.49,39.49,0,0,1-39.49-38.72c-.43-22.15,18.11-40.28,40.27-40.28H587.5a26,26,0,0,0,0-52H532.44V376a26,26,0,0,0-26-26Z"/><path d="M529.66,576H527c1.62,0,3.24,0,4.84.15a15.65,15.65,0,0,0-2.18-.15Z"/><path d="M449.85,627.05s0,0,0,0l.21,0a.6.6,0,0,1-.19-.06Z"/></svg>