<svg id="Capa_2" data-name="Capa 2" xmlns="http://www.w3.org/2000/svg" viewBox="0 0 1000 1000"><title>Cosecha</title><path d="M19.7,823.48a20,20,0,0,1-11-3.32c-8.22-5.38-11-17.4-6.58-26.17,32-63.11,64.5-93.09,99.26-91.61,29,1.21,46.57,23.67,60.73,41.71,13.09,16.68,21.81,26.81,32.4,26.91h.15c9.86,0,18.3-9,31-23.71,14.4-16.72,32.32-37.53,61.28-38.68,19.56-.76,38.74,7.7,57,25.2,11.84,11.34,23.2,26.22,34.7,45.5a20,20,0,0,1-34.35,20.5c-20.08-33.67-39.92-51.88-55.79-51.23-10.81.43-19.52,9.66-32.57,24.82-14.43,16.76-32.38,37.6-61.27,37.6h-.55c-30.58-.28-48.83-23.53-63.49-42.22-12.7-16.17-21.12-26-30.95-26.44-7.8-.33-29.56,5.85-62.12,70.17A20,20,0,0,1,19.7,823.48Z" transform="translate(0 0)"/><path d="M980,823.48a20,20,0,0,1-17.86-11C929.59,748.19,907.87,742,900,742.34c-9.83.41-18.25,10.27-30.95,26.44-14.66,18.69-32.91,41.94-63.49,42.22H805c-28.89,0-46.83-20.84-61.27-37.6-13-15.16-21.76-24.39-32.56-24.82-15.92-.61-35.71,17.56-55.8,51.23a20,20,0,0,1-34.35-20.5c11.5-19.28,22.86-34.16,34.71-45.5,18.28-17.5,37.48-26,57-25.2,29,1.15,46.89,22,61.29,38.68C786.77,762,795.21,771,805.07,771h.15c10.59-.1,19.31-10.23,32.4-26.91,14.16-18.05,31.78-40.5,60.73-41.71,34.88-1.48,67.38,28.65,99.49,92.07a20,20,0,0,1-17.83,29Z" transform="translate(0 0)"/><path d="M745.4,1000a88.92,88.92,0,0,1-9.08-.47c-31.26-3.28-49.55-23.84-64.24-40.37C657.66,943,648.75,933.75,634,933.75h-.23c-22.83.15-39.16,13.18-58.07,28.26-22.12,17.64-47.17,39.63-84.71,37.43-35.31-2.07-55.54-24.58-71.79-41.06-16-16.25-26-25.45-44-25.71-21-.33-36.84,12.49-55.23,27.3-21.77,17.54-46.46,43.42-81.94,39-27.42-3.39-52.38-26.27-74.19-56.18a20,20,0,1,1,32.32-23.57c15,20.62,30.77,32.08,46.78,34,17.77,2.19,31.32-7.87,51.94-24.48,21.06-17,44.89-36.16,79.55-36.16h1.34c35.27.5,55.56,21.08,71.88,37.62,14.35,14.55,25.69,26.05,45.65,27.22,22.23,1.32,37.76-11.09,57.42-26.77,21.6-17.23,46.08-36.75,82.77-37H634c33.43,0,52.56,21.52,68,38.83,14.06,15.81,23.44,25.58,38.52,27.16,22.77,2.39,48.71-12.17,77.11-43.27a20,20,0,1,1,29.54,27C812.83,981,778.66,1000,745.4,1000Z" transform="translate(0 0)"/><path d="M522,560V806H491V560h31m40-40H451V846H562V520Z" transform="translate(0 0)"/><path d="M400,391a88.1,88.1,0,0,1,88,88v41H427a67,67,0,0,1-67-67V391h40m0-40H320V453A107,107,0,0,0,427,560H528V479A128,128,0,0,0,400,351Z" transform="translate(0 0)"/><path d="M653,391v62.1A67,67,0,0,1,586.1,520H528V479a88.1,88.1,0,0,1,88-88h37m40-40H616A128,128,0,0,0,488,479v81h98.1A106.9,106.9,0,0,0,693,453.1V351Z" transform="translate(0 0)"/><path d="M366.59,215A121.41,121.41,0,0,1,488,336.41V344H427a67,67,0,0,1-67-67V215h6.59m0-40H320V277A107,107,0,0,0,427,384H528V336.41A161.42,161.42,0,0,0,366.59,175Z" transform="translate(0 0)"/><path d="M653,215v62.1A67,67,0,0,1,586.1,344H528v-7.68A121.31,121.31,0,0,1,649.32,215H653m40-40H649.32A161.33,161.33,0,0,0,488,336.32V384h98.1A106.9,106.9,0,0,0,693,277.1V175Z" transform="translate(0 0)"/><path d="M508.05,56.56l6.57,6.34a127.32,127.32,0,0,1,3.17,180l-6.33,6.57-5.57-5.38a128.7,128.7,0,0,1-3.21-182l5.37-5.57M507.06,0,473.9,34.35a168.7,168.7,0,0,0,4.21,238.55l34.34,33.16,34.12-35.34a167.33,167.33,0,0,0-4.17-236.6L507.06,0Z" transform="translate(0 0)"/></svg>