<svg xmlns="http://www.w3.org/2000/svg" viewBox="0 0 1000 1000"><defs><style>.cls-1{fill:#297aca;}.cls-1,.cls-2,.cls-4{opacity:0.3;}.cls-1,.cls-2,.cls-3,.cls-4,.cls-5,.cls-6,.cls-8{isolation:isolate;}.cls-2,.cls-8{fill:#2d4d82;}.cls-3,.cls-4{fill:#4caf50;}.cls-3{opacity:0.5;}.cls-5,.cls-6,.cls-7{fill:#0e1830;}.cls-5{opacity:0.6;}.cls-6{opacity:0.8;}.cls-8{opacity:0.4;}</style></defs><title>Conjunto OT</title><g id="OT"><circle class="cls-1" cx="758.34" cy="725.68" r="163"/><path class="cls-2" d="M919.73,889.12A80.27,80.27,0,1,1,1000,808.86,80.35,80.35,0,0,1,919.73,889.12Zm0-145.29a65,65,0,1,0,65,65A65.1,65.1,0,0,0,919.73,743.83Z"/><path class="cls-3" d="M764.43,376.16,763,360.22a77.42,77.42,0,1,0-80.81-99.55L666.92,256a93.41,93.41,0,1,1,97.51,120.12Z"/><path class="cls-3" d="M761.5,330.69l-1.19-16a34.52,34.52,0,0,0,17.26-6.08,32.32,32.32,0,0,0,11.23-13.73A31.78,31.78,0,0,0,791,277.46,33.64,33.64,0,0,0,783.44,261a36.14,36.14,0,0,0-33.88-12.18,34,34,0,0,0-16.41,7.84,32,32,0,0,0-9.59,14.81l-15.32-4.63a48,48,0,0,1,14.37-22.22,50.05,50.05,0,0,1,24.11-11.54,52.11,52.11,0,0,1,49,17.63A49.62,49.62,0,0,1,806.78,275a47.83,47.83,0,0,1-20,46.78A50.6,50.6,0,0,1,761.5,330.69Z"/><circle class="cls-4" cx="271.8" cy="521.04" r="155.59"/><path class="cls-5" d="M287.05,205.67A47.66,47.66,0,1,1,334.71,158,47.71,47.71,0,0,1,287.05,205.67Zm0-79.32A31.66,31.66,0,1,0,318.71,158,31.69,31.69,0,0,0,287.05,126.35Z"/><path class="cls-6" d="M360.27,83.64a23.26,23.26,0,1,1,23.25-23.25A23.29,23.29,0,0,1,360.27,83.64Zm0-30.51a7.26,7.26,0,1,0,7.25,7.26A7.27,7.27,0,0,0,360.27,53.13Z"/><path class="cls-7" d="M368.27,894.38a8,8,0,0,1-8,8H276.75V992a8,8,0,0,1-16,0V902.38H171.13a8,8,0,0,1,0-16h89.62V802.86a8,8,0,0,1,16,0v83.52h83.52A8,8,0,0,1,368.27,894.38Z"/><path class="cls-8" d="M89.6,641.15c-1.47,0-2.94,0-4.41-.11a89.61,89.61,0,1,1,18.4-178l-2.39,15.16A74.27,74.27,0,1,0,124.7,617L132,630.51A89.74,89.74,0,0,1,89.6,641.15Z"/><path class="cls-8" d="M90.54,600.57c-1,0-2.07,0-3.1-.1A48.09,48.09,0,0,1,63.27,592,50,50,0,0,1,42,546.8a47.61,47.61,0,0,1,8.9-24A45.92,45.92,0,0,1,96.2,504.67l-2.67,15.11a31,31,0,0,0-16.92,1.71,30.51,30.51,0,0,0-13.32,10.38,32.23,32.23,0,0,0-6,16.24A34.63,34.63,0,0,0,72,579.35a32.74,32.74,0,0,0,16.45,5.8A30.62,30.62,0,0,0,105,581.6l7.25,13.53A46,46,0,0,1,90.54,600.57Z"/><path class="cls-7" d="M672.7,310.19A44.37,44.37,0,0,1,717,354.49v339.2A44.37,44.37,0,0,1,672.7,738H444.18a44.35,44.35,0,0,1-44.3-44.3V354.49a44.35,44.35,0,0,1,44.3-44.3Zm0-18.6H444.18a62.91,62.91,0,0,0-62.9,62.9v339.2a62.89,62.89,0,0,0,62.9,62.9H672.7a62.91,62.91,0,0,0,62.91-62.9V354.49a62.92,62.92,0,0,0-62.91-62.9Z"/><path class="cls-7" d="M498.4,609.9v27.9H465.85V609.9Zm12.09-18.6H453.78a6.54,6.54,0,0,0-6.51,6.51v52.06a6.56,6.56,0,0,0,6.51,6.51h56.69a6.56,6.56,0,0,0,6.51-6.51v-52a6.54,6.54,0,0,0-6.51-6.51Z"/><path class="cls-7" d="M653.24,405.76H563.05a11.63,11.63,0,0,0-11.62,11.63v.9a11.61,11.61,0,0,0,11.62,11.62h90.19a11.61,11.61,0,0,0,11.62-11.62v-.9a11.63,11.63,0,0,0-11.62-11.63Z"/><path class="cls-7" d="M468.1,442.44a9.46,9.46,0,0,0,1.78,2.06l-.15-.16Z"/><path class="cls-7" d="M484.44,444.58l-.93.8a9.66,9.66,0,0,1-5.94,2.36,9.69,9.69,0,0,0,6.88-3.16Z"/><path class="cls-7" d="M484.47,444.52l0,0Z"/><path class="cls-7" d="M519,377.84a9.73,9.73,0,0,0-4.08.89,9.84,9.84,0,0,0-3.33,2.5l-34.41,39.94-13.12-15.24a9.85,9.85,0,0,0-3-2.35,9.71,9.71,0,0,0-7.45-.55,9.82,9.82,0,0,0-3.32,1.87l-.93.81a9.77,9.77,0,0,0-1,13.76l19.77,23,1.63,1.9.15.16.06.05.93.81a9.81,9.81,0,0,0,5.95,2.36h.73a9.75,9.75,0,0,0,5.95-2.36l.93-.81,0,0,.17-.18,1.64-1.91,41-47.64a10,10,0,0,0,1.88-3.32,9.69,9.69,0,0,0,.46-3.78,9.84,9.84,0,0,0-3.36-6.68l-.93-.8a9.74,9.74,0,0,0-6.37-2.37Z"/><path class="cls-7" d="M519,477.93a9.7,9.7,0,0,0-7.41,3.39l-34.41,39.94L464.05,506a9.76,9.76,0,0,0-13.78-1l-.93.8a9.77,9.77,0,0,0-1,13.77l19.77,23,1.63,1.89.15.17.06,0,.93.81a9.78,9.78,0,0,0,6,2.36h.74a9.78,9.78,0,0,0,5.94-2.36l.93-.8,0,0a1.62,1.62,0,0,0,.18-.19l1.64-1.9,41-47.64a9.85,9.85,0,0,0,2.34-7.1,9.8,9.8,0,0,0-3.37-6.68l-.93-.8a9.73,9.73,0,0,0-6.36-2.37Z"/><path class="cls-7" d="M469.88,444.5a9.68,9.68,0,0,0,3.14,2.32,9.84,9.84,0,0,0,3.8.9,9.78,9.78,0,0,1-5.94-2.36l-.93-.81-.06-.05Z"/><path class="cls-7" d="M486.28,442.43l-1.64,1.91-.17.18A9.52,9.52,0,0,0,486.28,442.43Z"/><path class="cls-7" d="M653.7,508.06H563.52a11.64,11.64,0,0,0-11.63,11.63v.9a11.63,11.63,0,0,0,11.63,11.62H653.7a11.63,11.63,0,0,0,11.63-11.62v-.9a11.64,11.64,0,0,0-11.63-11.63Z"/><path class="cls-7" d="M653.24,614.08H563.05a11.63,11.63,0,0,0-11.62,11.63v.9a11.61,11.61,0,0,0,11.62,11.62h90.19a11.61,11.61,0,0,0,11.62-11.62v-.9a11.63,11.63,0,0,0-11.62-11.63Z"/><path class="cls-7" d="M959.31,134.37a12.29,12.29,0,0,1-22.46-2.66L902.09,21.35A15.58,15.58,0,0,1,903.16,9,16.89,16.89,0,0,1,913.57.59,16.61,16.61,0,0,1,917.94,0a17,17,0,0,1,8.89,2.52,15.57,15.57,0,0,1,7.22,10.05l26.49,112.62A12.31,12.31,0,0,1,959.31,134.37Z"/><path class="cls-7" d="M977.82,190.25a16.5,16.5,0,0,1-10,7.79,16.58,16.58,0,1,1,11.6-20.39A16.5,16.5,0,0,1,977.82,190.25Z"/><ellipse class="cls-7" cx="919.2" cy="23.33" rx="6.12" ry="9.9"/></g></svg>