<svg xmlns="http://www.w3.org/2000/svg" viewBox="0 0 1000 1000"><defs><style>.cls-1,.cls-4,.cls-5{opacity:0.3;}.cls-1,.cls-3,.cls-4,.cls-5,.cls-6,.cls-7,.cls-8{isolation:isolate;}.cls-2{fill:#297aca;}.cls-3,.cls-5{fill:#2d4d82;}.cls-3{opacity:0.4;}.cls-4,.cls-8{fill:#4caf50;}.cls-6,.cls-7,.cls-9{fill:#0e1830;}.cls-6{opacity:0.6;}.cls-7{opacity:0.8;}.cls-8{opacity:0.5;}</style></defs><title>Conjunto TL</title><g id="TL"><g class="cls-1"><circle class="cls-2" cx="286.38" cy="647.37" r="167.09"/><path class="cls-2" d="M286.48,815.2a168.09,168.09,0,1,1,70.3-15.58A167.76,167.76,0,0,1,286.48,815.2Zm-.35-334.26a165.47,165.47,0,0,0-69.59,15.36c-83.3,38.52-119.74,137.62-81.23,220.92C163.4,778,223.73,813.79,286.63,813.8a166.43,166.43,0,1,0-.5-332.86Z"/></g><path class="cls-3" d="M89.13,758.59c-1.45,0-2.9,0-4.36-.11a88.12,88.12,0,1,1,18.1-175.05l-3.26,20.63a67.23,67.23,0,1,0,21.28,125.66l9.87,18.42A88.16,88.16,0,0,1,89.13,758.59Z"/><path class="cls-3" d="M88.05,720.13c-1,0-2.1,0-3.14-.11a48.78,48.78,0,0,1-24.52-8.62,50.56,50.56,0,0,1-21.52-45.69,48.23,48.23,0,0,1,9-24.32,46.58,46.58,0,0,1,20.36-15.85A47.05,47.05,0,0,1,94,622.92l-3.63,20.57A26.19,26.19,0,0,0,76,644.93a25.8,25.8,0,0,0-11.24,8.76,27.43,27.43,0,0,0-5.11,13.81A29.67,29.67,0,0,0,72.3,694.23a27.8,27.8,0,0,0,14,4.95,25.93,25.93,0,0,0,14-3l9.87,18.42A46.78,46.78,0,0,1,88.05,720.13Z"/><circle class="cls-4" cx="709.19" cy="303.9" r="152.14"/><path class="cls-5" d="M862.86,297.31a85.92,85.92,0,1,1,85.91-85.91A86,86,0,0,1,862.86,297.31Zm0-150.94a65,65,0,1,0,65,65A65.1,65.1,0,0,0,862.86,146.37Z"/><path class="cls-6" d="M900.05,884a50.57,50.57,0,1,1,50.56-50.57A50.62,50.62,0,0,1,900.05,884Zm0-80.25a29.68,29.68,0,1,0,29.67,29.68A29.71,29.71,0,0,0,900.05,803.72Z"/><path class="cls-7" d="M974.12,760.51A25.88,25.88,0,1,1,1000,734.64,25.9,25.9,0,0,1,974.12,760.51Zm0-30.86a5,5,0,1,0,5,5A5,5,0,0,0,974.12,729.65Z"/><path class="cls-8" d="M807,662.13l-1.81-20.81a68.89,68.89,0,1,0-71.92-88.59l-20-6A89.79,89.79,0,1,1,807,662.13Z"/><path class="cls-8" d="M804.23,619.9l-1.54-20.83A29.13,29.13,0,0,0,817.22,594a27,27,0,0,0,9.38-11.47,26.59,26.59,0,0,0,1.82-14.57,28.33,28.33,0,0,0-6.33-13.77,30.57,30.57,0,0,0-28.63-10.29,28.7,28.7,0,0,0-13.79,6.58,26.73,26.73,0,0,0-8,12.36l-20-6a47.62,47.62,0,0,1,14.25-22,49.63,49.63,0,0,1,23.84-11.42,51.45,51.45,0,0,1,48.33,17.4,49.31,49.31,0,0,1,11,24,47.51,47.51,0,0,1-19.88,46.39A49.87,49.87,0,0,1,804.23,619.9Z"/><path class="cls-9" d="M371.93,221.59H297.16v80.68a10.5,10.5,0,1,1-21-.21V221.59H195.69a10.5,10.5,0,1,1-.21-21h80.68V125.82a10.5,10.5,0,1,1,21-.2v75h75a10.5,10.5,0,1,1-.2,21Z"/><path class="cls-9" d="M536.39,315.34a78.15,78.15,0,0,1,56.35,24A83.53,83.53,0,0,1,616.34,398c0,15-4.6,29.43-14.47,45.36a159.53,159.53,0,0,1-16.27,21.42l-49.21,55.52-56.77-64.05c-7.56-8.84-12.82-16.92-16.56-25.45a80.33,80.33,0,0,1-6.63-32.8A83.53,83.53,0,0,1,480,339.37,78.19,78.19,0,0,1,536.39,315.34Zm0-18.59c-54.42,0-98.54,45.33-98.54,101.28,0,31.1,12.59,52.77,27.76,70.46l70.78,79.88,63.12-71.23a177.62,177.62,0,0,0,18.17-24c9.85-15.91,17.25-33.8,17.25-55.15C634.93,342.08,590.81,296.75,536.39,296.75Z"/><path class="cls-9" d="M761.16,597.59V711c0,17.43-15.54,31.61-34.64,31.61H367.59c-19,0-34.43-14.18-34.43-31.61V597.59h96.77c19.72,0,38.72,4.26,55,12.34,15.13,7.52,26.94,17.86,34.16,29.89a55,55,0,0,1,4.58,9.53l17.48,47.81,17.49-47.81a55.72,55.72,0,0,1,3.12-7c6.75-12.63,18.48-23.55,33.93-31.6,16.6-8.63,36.18-13.19,56.65-13.19Zm18-18H651.75c-48.41,0-89.85,22.7-107,54.87a75.06,75.06,0,0,0-4.19,9.39,73.79,73.79,0,0,0-6.1-12.78c-18.14-30.37-58.34-51.48-105-51.48H314.16V712.17c0,27.85,23.72,50.42,53,50.42H725.93c29.4,0,53.23-22.57,53.23-50.42Z"/><path class="cls-9" d="M403.66,664.59c20,0,39.24,5.06,52.9,13.89,6.57,4.25,17.6,13.16,17.6,25.12v39H378c-17.76,0-30.14-3.48-36.8-10.33-5.37-5.52-8-14.29-8-26.85V664.59Zm0-19h-89.5v59.32c0,31.76,14.22,55.68,63.65,55.68H493.16v-57.5C493.16,671.33,453.11,645.59,403.66,645.59Z"/><path class="cls-9" d="M759.16,664.6v39c0,13.09-2.6,22.33-7.95,28.23-6.49,7.15-18.57,10.78-35.92,10.78H618.16v-39c0-12,11-20.86,17.6-25.11,13.66-8.79,32.94-13.88,52.9-13.88h70.5Zm20-19h-89.5c-49.43,0-89.5,25.74-89.5,57.49v57.51H716.44c49.43,0,62.72-25.75,62.72-57.5V645.6Z"/><path class="cls-9" d="M536.63,366.47a25.35,25.35,0,1,1-17.91,7.43A25.34,25.34,0,0,1,536.63,366.47Zm0-18.59a43.91,43.91,0,1,0,31.06,12.86A43.95,43.95,0,0,0,536.63,347.88Z"/></g></svg>