<svg id="Capa_2" data-name="Capa 2" xmlns="http://www.w3.org/2000/svg" viewBox="0 0 1000 1000"><title>Icono OT</title><path d="M751.73,40A95.38,95.38,0,0,1,847,135.27V864.73A95.38,95.38,0,0,1,751.73,960H260.27A95.38,95.38,0,0,1,165,864.73V135.27A95.38,95.38,0,0,1,260.27,40H751.73m0-40H260.27A135.27,135.27,0,0,0,125,135.27V864.73A135.27,135.27,0,0,0,260.27,1000H751.73A135.27,135.27,0,0,0,887,864.73V135.27A135.27,135.27,0,0,0,751.73,0Z"/><path d="M376.89,684.53v60h-70v-60h70m26-40H280.93a14.08,14.08,0,0,0-14,14V770.49a14.08,14.08,0,0,0,14,14H402.85a14.08,14.08,0,0,0,14-14V658.57a14.08,14.08,0,0,0-14-14Z"/><path d="M709.86,245.53H515.92a25,25,0,0,0-25,25v1.93a25,25,0,0,0,25,25H709.86a25,25,0,0,0,25-25v-1.93a25,25,0,0,0-25-25Z"/><path d="M311.73,324.41a20.68,20.68,0,0,0,3.82,4.42c-.12-.12-.22-.23-.32-.35l-3.5-4.07Z"/><path d="M346.86,329l-2,1.73a20.85,20.85,0,0,1-12.78,5.07,20.81,20.81,0,0,0,14.8-6.8Z"/><path d="M346.93,328.88a.46.46,0,0,1-.07.07h0a.46.46,0,0,0,.07-.07Z"/><path d="M421.15,185.48a21,21,0,0,0-15.92,7.3l-74,85.89L303,245.89a21,21,0,0,0-29.62-2.21l-2,1.73A21,21,0,0,0,269.2,275l42.53,49.39,3.5,4.07c.1.12.2.23.32.35l.13.12,2,1.73a20.9,20.9,0,0,0,12.79,5.07l.79,0,.79,0a20.85,20.85,0,0,0,12.78-5.07l2-1.73a.46.46,0,0,0,.07-.07,4.61,4.61,0,0,0,.37-.4l3.53-4.1,88.23-102.46a21,21,0,0,0-2.2-29.62l-2-1.73a20.93,20.93,0,0,0-13.69-5.09Z"/><path d="M421.15,400.72a20.92,20.92,0,0,0-15.92,7.3l-74,85.89L303,461.13a21,21,0,0,0-29.62-2.21l-2,1.73a21,21,0,0,0-2.21,29.61l42.53,49.39,3.5,4.07c.1.12.2.23.32.35l.13.12,2,1.73A20.9,20.9,0,0,0,330.48,551l.79,0,.79,0a20.85,20.85,0,0,0,12.78-5.07l2-1.73.07-.07a4.61,4.61,0,0,0,.37-.4l3.53-4.1,88.23-102.46a21,21,0,0,0-2.2-29.62l-2-1.73a20.88,20.88,0,0,0-13.69-5.09Z"/><path d="M315.55,328.83a20.87,20.87,0,0,0,14.93,6.92,20.9,20.9,0,0,1-12.79-5.07l-2-1.73-.13-.12Z"/><path d="M350.83,324.38l-3.53,4.1a4.61,4.61,0,0,1-.37.4,20.69,20.69,0,0,0,3.9-4.5Z"/><path d="M710.86,465.53H516.92a25,25,0,0,0-25,25v1.93a25,25,0,0,0,25,25H710.86a25,25,0,0,0,25-25v-1.93a25,25,0,0,0-25-25Z"/><path d="M709.86,693.53H515.92a25,25,0,0,0-25,25v1.93a25,25,0,0,0,25,25H709.86a25,25,0,0,0,25-25v-1.93a25,25,0,0,0-25-25Z"/></svg>