<svg id="Capa_1" data-name="Capa 1" xmlns="http://www.w3.org/2000/svg" viewBox="0 0 1000 1000"><title>Icono Stock de insumos</title><path d="M822.41,40A137.59,137.59,0,0,1,960,177.59V559.41A137.59,137.59,0,0,1,822.41,697H737.83C706.24,582,614,507,499.5,507c-115.34,0-205.24,73.47-236.56,190H177.59A137.59,137.59,0,0,1,40,559.41V177.59A137.59,137.59,0,0,1,177.59,40H822.41m0-40H177.59A177.59,177.59,0,0,0,0,177.59V559.41A177.59,177.59,0,0,0,177.59,737H295.24c17.45-107.74,91.6-190,204.26-190s188.69,82.26,206.14,190H822.41A177.59,177.59,0,0,0,1000,559.41V177.59A177.59,177.59,0,0,0,822.41,0Z" transform="translate(0 0)"/><path d="M500,548.64a205.75,205.75,0,0,1,203,172.5,208.2,208.2,0,0,1,2.66,33.18,205.68,205.68,0,1,1-411.36,0,208.64,208.64,0,0,1,2.66-33.2A205.47,205.47,0,0,1,500,548.64m0-40c-122.2,0-223.57,89.23-242.5,206.09a246,246,0,0,0-3.18,39.59C254.32,890,364.32,1000,500,1000S745.68,890,745.68,754.32a246,246,0,0,0-3.18-39.59C723.57,597.87,622.2,508.64,500,508.64Z" transform="translate(0 0)"/><path d="M567,679.18a21,21,0,0,0-15.92,7.29l-74,85.89-28.23-32.78a21,21,0,0,0-29.62-2.21l-2,1.73a21,21,0,0,0-2.21,29.61L457.6,818.1l3.5,4.07c.1.12.2.23.32.35l.13.12,2,1.73a20.9,20.9,0,0,0,12.79,5.07l.79,0,.79,0a20.85,20.85,0,0,0,12.78-5.07l2-1.73.07-.07a4.61,4.61,0,0,0,.37-.4l3.53-4.1,88.23-102.46a21,21,0,0,0-2.2-29.62l-2-1.73A20.92,20.92,0,0,0,567,679.18Z" transform="translate(0 0)"/><path d="M817.8,40A142.2,142.2,0,0,1,960,182.2v49.64H40V182.2A142.2,142.2,0,0,1,182.2,40H817.8m0-40H182.2A182.2,182.2,0,0,0,0,182.2v67.44a22.2,22.2,0,0,0,22.2,22.2H977.8a22.2,22.2,0,0,0,22.2-22.2V182.2A182.2,182.2,0,0,0,817.8,0Z" transform="translate(0 0)"/><path d="M637.66,40V231.84H362.34V40H637.66m40-40H322.34V271.84H677.66V0Z" transform="translate(0 0)"/></svg>