<svg id="Capa_2" data-name="Capa 2" xmlns="http://www.w3.org/2000/svg" viewBox="0 0 1000 1000"><title>Icono Stock  de cosecha</title><path d="M112.2,558a40.73,40.73,0,0,1,40.69,40.69V919.31A40.73,40.73,0,0,1,112.2,960H40V558h72.2m0-40H30.71A30.71,30.71,0,0,0,0,548.71V969.29A30.71,30.71,0,0,0,30.71,1000H112.2a80.69,80.69,0,0,0,80.69-80.69V598.69A80.69,80.69,0,0,0,112.2,518Z"/><path d="M580.27,584.86a27.22,27.22,0,0,1,5.5.54c5,1,8.12,2.59,9.41,3.53a59.79,59.79,0,0,1-16.58,12.3c-2.9,1.45-5.4,2.79-7.82,4.08-3.41,1.82-6.36,3.39-10,5.08-1.07.48-2.12,1-3.12,1.53a56.38,56.38,0,0,0,22.54,106l64.59,4.6c4.14.29,8.34.44,12.5.44a175.22,175.22,0,0,0,72.15-15.41L931,617.2l0,0,1.38-.62.47-.21A19.55,19.55,0,0,1,958.58,626a18.78,18.78,0,0,1,1.71,7.81,19,19,0,0,1-2.37,9.18l-18.2,13.41L718,819.76A196.67,196.67,0,0,1,601.42,858H193V665.2l137.71-56a245.11,245.11,0,0,1,83-17.9L579,584.89l1.25,0M934.21,615.7h0M580.27,544.86q-1.42,0-2.85.06l-165.29,6.46a286,286,0,0,0-96.48,20.81L163.23,634.12A16.37,16.37,0,0,0,153,649.3V881.62A16.4,16.4,0,0,0,169.42,898h432a236.61,236.61,0,0,0,140.35-46L963.45,688.57l18.31-13.49a38.84,38.84,0,0,0,10.57-11.72,59.32,59.32,0,0,0-75.77-83.54l-.19.08-1.78.8L713.05,671.05A136.45,136.45,0,0,1,657.26,683c-3.22,0-6.45-.11-9.67-.34L583,678a16.24,16.24,0,0,1-15.27-16.5,15.92,15.92,0,0,1,8.7-14.3c.28-.15.57-.29.86-.42,7.72-3.54,12.73-6.56,19.2-9.8,14.29-7.16,39.25-25,39.25-45.5,0-31.89-26.21-42-41.94-45.28a67.12,67.12,0,0,0-13.55-1.36Z"/><path d="M460,40a51,51,0,1,1-51,51,51.06,51.06,0,0,1,51-51m0-40a91,91,0,1,0,91,91A91,91,0,0,0,460,0Z"/><path d="M625.69,273.65a51,51,0,1,1-51,51,51.06,51.06,0,0,1,51-51m0-40a91,91,0,1,0,91,91,91,91,0,0,0-91-91Z"/><path d="M848,121a51,51,0,1,1-51,51,51.06,51.06,0,0,1,51-51m0-40a91,91,0,1,0,91,91,91,91,0,0,0-91-91Z"/></svg>