<svg width="24" height="24" viewBox="0 0 24 24" fill="none" xmlns="http://www.w3.org/2000/svg">
<path d="M12.0001 19.0669C12.1899 19.0669 12.3755 19.1232 12.5334 19.2287C12.6913 19.3342 12.8143 19.4841 12.887 19.6596C12.9597 19.835 12.9787 20.028 12.9416 20.2142C12.9046 20.4004 12.8132 20.5715 12.6789 20.7057C12.5446 20.84 12.3736 20.9314 12.1874 20.9685C12.0011 21.0055 11.8081 20.9865 11.6327 20.9139C11.4573 20.8412 11.3073 20.7181 11.2019 20.5603C11.0964 20.4024 11.0401 20.2168 11.0401 20.0269C11.0401 19.7723 11.1412 19.5281 11.3213 19.3481C11.5013 19.1681 11.7455 19.0669 12.0001 19.0669V19.0669ZM12.0001 18.1069C11.6203 18.1069 11.2491 18.2195 10.9334 18.4305C10.6176 18.6415 10.3715 18.9413 10.2262 19.2922C10.0809 19.643 10.0429 20.0291 10.117 20.4015C10.1911 20.7739 10.3739 21.1161 10.6424 21.3846C10.9109 21.6531 11.2531 21.8359 11.6255 21.91C11.9979 21.9841 12.384 21.9461 12.7348 21.8008C13.0857 21.6555 13.3855 21.4094 13.5965 21.0936C13.8075 20.7779 13.9201 20.4067 13.9201 20.0269C13.9201 19.5177 13.7178 19.0294 13.3577 18.6693C12.9976 18.3092 12.5093 18.1069 12.0001 18.1069V18.1069Z" fill="#2D4D82"/>
<path d="M12.9873 14.8057C12.7393 14.7663 12.4888 14.7458 12.2377 14.7442C10.8657 14.7361 9.65726 15.29 8.88446 15.7582C8.02862 16.2766 7.49942 16.807 7.49414 16.8123C7.40428 16.9006 7.2833 16.95 7.15732 16.9499C7.03133 16.9498 6.91044 16.9002 6.82073 16.8117C6.73102 16.7233 6.67968 16.6031 6.67779 16.4771C6.6759 16.3512 6.72361 16.2295 6.81062 16.1384C6.83462 16.1144 7.41062 15.5329 8.35958 14.9538C9.53702 14.2338 10.78 13.8346 11.9694 13.7881L12.9873 14.8057Z" fill="#2D4D82"/>
<path d="M7.48641 9.3042L8.21913 10.0369C7.48037 10.3392 6.77413 10.7155 6.11121 11.1601C4.83921 12.0104 4.10001 12.844 4.09281 12.8524C4.00885 12.9481 3.89032 13.0065 3.76328 13.0148C3.63624 13.0231 3.51111 12.9806 3.41541 12.8966C3.31971 12.8127 3.26128 12.6941 3.25298 12.5671C3.24467 12.4401 3.28717 12.3149 3.37113 12.2192C3.40353 12.1823 4.18257 11.3003 5.54769 10.382C6.16125 9.96688 6.80996 9.60623 7.48641 9.3042V9.3042Z" fill="#2D4D82"/>
<path d="M20.6243 12.8583C20.5793 12.9078 20.5244 12.9473 20.4633 12.9743C20.4021 13.0013 20.336 13.0153 20.2691 13.0152V13.0152C20.1496 13.0155 20.0344 12.9709 19.9463 12.8902C17.1573 10.3532 14.2761 9.14813 11.3821 9.30845C11.302 9.31301 11.2225 9.31829 11.1436 9.32501L10.2812 8.46245C10.6244 8.40823 10.9702 8.37138 11.3171 8.35205C14.4817 8.17181 17.6022 9.45989 20.5924 12.1803C20.6865 12.266 20.7427 12.3855 20.7487 12.5127C20.7547 12.6398 20.71 12.7641 20.6243 12.8583V12.8583Z" fill="#2D4D82"/>
<path d="M3.84506 5.66406L4.54633 6.36534C4.27801 6.5259 4.02722 6.6855 3.79514 6.84078C1.93945 8.07822 0.857535 9.28926 0.846735 9.30126C0.761608 9.39696 0.642127 9.45517 0.514296 9.46322C0.386465 9.47126 0.260629 9.4285 0.164175 9.34422C0.116835 9.30303 0.0780717 9.25292 0.0500994 9.19674C0.022127 9.14057 0.00549307 9.07944 0.00114726 9.01684C-0.00319854 8.95423 0.00482891 8.89139 0.0247713 8.83189C0.0447136 8.77239 0.0761803 8.7174 0.117375 8.67006L0.120015 8.66718C0.168015 8.61414 1.29601 7.3503 3.25442 6.0423C3.44994 5.91174 3.64682 5.78566 3.84506 5.66406Z" fill="#2D4D82"/>
<path d="M23.8687 9.31359L23.8651 9.31743C23.7758 9.40923 23.6538 9.46204 23.5258 9.46438C23.3977 9.46672 23.2739 9.41839 23.1813 9.32991C19.4337 5.74575 15.4987 4.01175 11.4847 4.17615C9.82127 4.24407 8.29847 4.63863 6.97895 5.16015L6.24023 4.42119C6.43319 4.33879 6.62679 4.26071 6.82103 4.18695C8.34719 3.60615 9.90287 3.27975 11.4451 3.21663C15.7334 3.04119 19.9075 4.86543 23.8531 8.63871C23.9447 8.72614 23.9977 8.84635 24.0007 8.97292C24.0036 9.09948 23.9561 9.22202 23.8687 9.31359V9.31359Z" fill="#2D4D82"/>
<path d="M23.539 23.9999C23.4784 23.9999 23.4184 23.9881 23.3624 23.9649C23.3064 23.9417 23.2556 23.9077 23.2128 23.8648L0.135594 0.787787C0.0497271 0.701106 0.00167788 0.58395 0.00195431 0.461939C0.00223074 0.339929 0.0508103 0.222992 0.137069 0.136701C0.223328 0.0504103 0.340247 0.00178774 0.462258 0.00146645C0.584269 0.00114515 0.701442 0.0491512 0.788155 0.134986L23.8654 23.212C23.9299 23.2765 23.9739 23.3587 23.9917 23.4483C24.0095 23.5378 24.0004 23.6306 23.9655 23.715C23.9305 23.7993 23.8714 23.8714 23.7954 23.9221C23.7195 23.9728 23.6303 23.9999 23.539 23.9999V23.9999Z" fill="#2D4D82"/>
</svg>
