<svg id="Capa_2" data-name="Capa 2" xmlns="http://www.w3.org/2000/svg" viewBox="0 0 1000 1000"><title>Icono Tareas por lote</title><path d="M478,40c45.74,0,88.79,18.36,121.24,51.7C632,125.35,650,170.16,650,217.89c0,32.29-9.89,63.31-31.12,97.58-9.14,14.73-20.59,29.8-35,46.09L478,481,355.87,343.2c-16.26-19-27.58-36.4-35.62-54.74-9.59-21.92-14.26-45-14.26-70.57,0-47.73,18-92.54,50.77-126.19C389.21,58.36,432.26,40,478,40m0-40C360.93,0,266,97.52,266,217.89c0,66.9,27.09,113.54,59.72,151.59L478,541.32,613.8,388.09c14.32-16.16,27.7-33.19,39.08-51.54C674.09,302.31,690,263.83,690,217.89,690,97.52,595.07,0,478,0Z"/><path d="M960,648V892c0,37.5-33.4,68-74.46,68H114c-40.8,0-74-30.5-74-68V648H248c42.4,0,83.25,9.18,118.14,26.55,32.53,16.2,57.92,38.43,73.44,64.32a119.15,119.15,0,0,1,9.85,20.5L487,862.25l37.58-102.87a119.27,119.27,0,0,1,6.72-15c14.5-27.17,39.72-50.67,72.93-68C639.91,657.82,682,648,726,648H960m40-40H726c-104.11,0-193.23,48.63-230,117.55a158,158,0,0,0-9,20.1,159.4,159.4,0,0,0-13.12-27.37C434.87,653.23,348.41,608,248,608H0V892c0,59.65,51,108,114,108H885.54c63.21,0,114.46-48.35,114.46-108V608Z"/><path d="M192.18,791.56c43.09,0,84.7,10.93,114.18,30,14.19,9.17,38,28.42,38,54.24V960H136.68c-38.33,0-65.06-7.5-79.44-22.3C45.66,925.79,40,906.83,40,879.71l0-88.15H192.18m0-40H0L0,879.72C0,948.32,30.54,1000,136.68,1000H384.36V875.78c0-68.6-86-124.22-192.18-124.22Z"/><path d="M960,791.56v84.22c0,28.29-5.61,48.23-17.16,61-14,15.44-40.09,23.27-77.52,23.27H655.64V875.78c0-25.82,23.81-45.07,38-54.24,29.48-19,71.09-30,114.18-30H960m40-40H807.82c-106.14,0-192.18,55.62-192.18,124.22V1000H865.32C971.46,1000,1000,944.38,1000,875.78V751.56Z"/><path d="M478.5,150A54.5,54.5,0,1,1,424,204.5,54.56,54.56,0,0,1,478.5,150m0-40A94.5,94.5,0,1,0,573,204.5,94.5,94.5,0,0,0,478.5,110Z"/></svg>