<svg id="Capa_2" data-name="Capa 2" xmlns="http://www.w3.org/2000/svg" viewBox="0 0 1000 1000"><title>Icono Sin Wifi</title><path d="M500,794.46a40,40,0,1,1-40,40A40,40,0,0,1,500,794.46Zm0-40a80,80,0,1,0,80,80A80,80,0,0,0,500,754.46Z"/><path d="M541.15,616.9a207.3,207.3,0,0,0-31.23-2.56C452.75,614,402.4,637.08,370.2,656.59c-35.66,21.6-57.71,43.7-57.93,43.92a20,20,0,0,1-28.48-28.08c1-1,25-25.23,64.54-49.36,49.06-30,100.85-46.63,150.41-48.57Z"/><path d="M311.91,387.67l30.53,30.53A492.58,492.58,0,0,0,254.61,465c-53,35.43-83.8,70.16-84.1,70.51a20,20,0,0,1-30.07-26.38c1.35-1.54,33.81-38.29,90.69-76.55A529,529,0,0,1,311.91,387.67Z"/><path d="M859.33,535.76a20,20,0,0,1-14.8,6.54h0a19.86,19.86,0,0,1-13.45-5.21C714.87,431.38,594.82,381.17,474.24,387.85c-3.34.19-6.65.41-9.94.69L428.37,352.6A429.73,429.73,0,0,1,471.53,348C603.39,340.49,733.41,394.16,858,507.51A20,20,0,0,1,859.33,535.76Z"/><path d="M160.21,236l29.22,29.22c-11.18,6.69-21.63,13.34-31.3,19.81C80.81,336.59,35.73,387.05,35.28,387.55a20.24,20.24,0,0,1-28.44,1.79,19.91,19.91,0,0,1-1.95-28.09l.11-.12c2-2.21,49-54.87,130.6-109.37Q147.82,243.6,160.21,236Z"/><path d="M994.52,388.06l-.15.16a20.24,20.24,0,0,1-28.49.52C809.73,239.4,645.77,167.15,478.52,174c-69.31,2.83-132.76,19.27-187.74,41L260,184.21q12.06-5.15,24.2-9.76c63.59-24.2,128.41-37.8,192.67-40.43,178.68-7.31,352.6,68.7,517,225.92A19.89,19.89,0,0,1,994.52,388.06Z"/><path d="M980.77,1000a19.16,19.16,0,0,1-13.59-5.63L5.63,32.83A19.23,19.23,0,0,1,32.82,5.63L994.37,967.17a19.23,19.23,0,0,1-13.6,32.83Z"/></svg>