<svg id="Capa_2" data-name="Capa 2" xmlns="http://www.w3.org/2000/svg" xmlns:xlink="http://www.w3.org/1999/xlink" viewBox="0 0 1000 1191.55"><defs><style>.cls-1{fill:none;}.cls-2{fill:#297aca;}.cls-2,.cls-3,.cls-6,.cls-8{opacity:0.3;}.cls-10,.cls-3{fill:#2d4d82;}.cls-4,.cls-5,.cls-9{fill:#0e1830;}.cls-4{opacity:0.6;}.cls-5{opacity:0.8;}.cls-11,.cls-7,.cls-8{fill:#4caf50;}.cls-10{opacity:0.4;}.cls-10,.cls-11{isolation:isolate;}.cls-11{opacity:0.5;}.cls-12{clip-path:url(#clip-path);}.cls-13{clip-path:url(#clip-path-2);}.cls-14{clip-path:url(#clip-path-3);}.cls-15{clip-path:url(#clip-path-4);}</style><clipPath id="clip-path"><rect class="cls-1" x="601" y="108" width="350" height="350"/></clipPath><clipPath id="clip-path-2"><rect class="cls-1" x="265" y="176" width="207" height="207"/></clipPath><clipPath id="clip-path-3"><rect class="cls-1" x="605" y="524" width="172" height="172"/></clipPath><clipPath id="clip-path-4"><rect class="cls-1" x="189.84" y="443.31" width="356" height="356"/></clipPath></defs><title>Conjunto Proximamente</title><circle class="cls-2" cx="375" cy="276" r="276"/><path class="cls-3" d="M99,359a51,51,0,1,1-51,51,51.06,51.06,0,0,1,51-51m0-8a59,59,0,1,0,59,59,59,59,0,0,0-59-59Z"/><path class="cls-4" d="M534.5,768A24.5,24.5,0,1,1,510,792.5,24.53,24.53,0,0,1,534.5,768m0-8A32.5,32.5,0,1,0,567,792.5,32.5,32.5,0,0,0,534.5,760Z"/><path class="cls-5" d="M485,714a10,10,0,1,1-10,10,10,10,0,0,1,10-10m0-8a18,18,0,1,0,18,18,18,18,0,0,0-18-18Z"/><g class="cls-6"><circle class="cls-7" cx="931.5" cy="722.5" r="55.5"/></g><circle class="cls-8" cx="832" cy="555" r="168"/><path class="cls-9" d="M183.72,147.84a8,8,0,0,1-6.35-3.12,8.15,8.15,0,0,1,.54-10.38L212,96H8.25A8.15,8.15,0,0,1,.09,89.19,8,8,0,0,1,8,80H211.65L177.82,43a8,8,0,0,1,11.8-10.8L235.7,82.6h0a8,8,0,0,1,2,4.8,8.28,8.28,0,0,1-.05,1.65,8,8,0,0,1-1.52,3.69c-.15.2-.31.4-.48.59l-46,51.79A8,8,0,0,1,183.72,147.84Z"/><path class="cls-10" d="M174.5,835.66a69,69,0,0,1-3.06-137.9l.71,16a53,53,0,1,0,36.21,93.69l10.22,12.31a69,69,0,0,1-44.08,15.92Z"/><path class="cls-10" d="M172.76,804a37.26,37.26,0,0,1-1.65-74.49l.71,16a21.26,21.26,0,1,0,14.53,37.6l10.22,12.31a37.25,37.25,0,0,1-18.18,8.17A36.71,36.71,0,0,1,172.76,804Z"/><path class="cls-11" d="M945.87,181.89l-7-14.4a50,50,0,1,0-71.69-41.44l-16,1.14a66,66,0,1,1,94.63,54.7Z"/><path class="cls-11" d="M934.19,155.09l-7-14.39a19.22,19.22,0,0,0,7.86-7.08,20.63,20.63,0,0,0,3.11-10.52,21.94,21.94,0,0,0-2.73-11,21.63,21.63,0,0,0-7.82-8.15A20.13,20.13,0,0,0,917.21,101h-.05A19,19,0,0,0,907,103.93a19.35,19.35,0,0,0-7.07,7.94,21,21,0,0,0-2,10.88L882,124.1a37,37,0,0,1,3.54-19.22A35.09,35.09,0,0,1,917.11,85h.1a36.32,36.32,0,0,1,18.67,5.22,37.92,37.92,0,0,1,18.29,33.21,36.6,36.6,0,0,1-5.56,18.71A35.19,35.19,0,0,1,934.19,155.09Z"/><g class="cls-12"><path class="cls-9" d="M788.67,122a8.53,8.53,0,0,1,8,5.61,7.9,7.9,0,0,1,.33,1.27l5.17,27.45a8.46,8.46,0,0,0,5,6.24l31,13.08a8.52,8.52,0,0,0,7.88-.7l25.14-16.14a8.48,8.48,0,0,1,10.54,1.1l18.08,17.8a8.48,8.48,0,0,1,1.05,10.8l-16.89,24.8a8.54,8.54,0,0,0-1.43,4,8.65,8.65,0,0,0,.66,4.17l13.52,31.11a8.54,8.54,0,0,0,2.46,3.22,8.43,8.43,0,0,0,3.67,1.71l27.29,5.42a6.8,6.8,0,0,1,1.25.34,8.52,8.52,0,0,1,5.52,8v23.53a8.48,8.48,0,0,1-6.88,8.32l-26.57,5.13a8.51,8.51,0,0,0-6.14,4.86l-14.36,32.09a8.46,8.46,0,0,0,.77,8.27l17,24.68a8.49,8.49,0,0,1-1,10.88l-18.29,17.81A8.48,8.48,0,0,1,871,407.84l-24.82-16.08a8.53,8.53,0,0,0-7.94-.71l-31.42,13.41a8.42,8.42,0,0,0-5,6.12l-5.37,26.62a8.54,8.54,0,0,1-7,6.71,7,7,0,0,1-1.3.09H763.84a6.88,6.88,0,0,1-1.29-.09,8.54,8.54,0,0,1-7-6.71l-5.37-26.62a8.49,8.49,0,0,0-5-6.12l-31.43-13.39a8.3,8.3,0,0,0-4.06-.64,8.43,8.43,0,0,0-3.88,1.34L681,407.85a8.49,8.49,0,0,1-10.54-1.05L652.16,389a8.49,8.49,0,0,1-1-10.88l17-24.7a8.49,8.49,0,0,0,.76-8.27l-14.36-32.08a8.44,8.44,0,0,0-6.14-4.87l-26.54-5.12a8.46,8.46,0,0,1-6.88-8.32V271.22a8.53,8.53,0,0,1,5.52-8,9,9,0,0,1,1.26-.34l27.28-5.41a8.56,8.56,0,0,0,3.67-1.72,8.47,8.47,0,0,0,2.46-3.22l13.52-31.11a8.49,8.49,0,0,0-.77-8.14l-16.89-24.79a8.48,8.48,0,0,1,1.05-10.8l18.07-17.8a8.49,8.49,0,0,1,10.55-1.1L705.85,175a8.54,8.54,0,0,0,7.89.7l31-13.08a8.52,8.52,0,0,0,5-6.24L755,128.91a8.47,8.47,0,0,1,8.33-6.91Zm0-14H763.34a22.59,22.59,0,0,0-22.2,18.41l-4.6,24.41L711,161.55,688.41,147a22.6,22.6,0,0,0-28.06,2.91L642.3,167.75a22.56,22.56,0,0,0-2.8,28.79l15.12,22.19-11.08,25.52-24.34,4.83A22.63,22.63,0,0,0,601,271.23v23.51a22.64,22.64,0,0,0,18.31,22.17L643,321.48,654.85,348,639.62,370a22.56,22.56,0,0,0,2.83,29l18.27,17.8a22.58,22.58,0,0,0,28,2.77L711,405.15l25.92,11,4.78,23.7A22.58,22.58,0,0,0,763.88,458h24.26a22.58,22.58,0,0,0,22.14-18.12l4.78-23.7,25.9-11,22.28,14.43a22.59,22.59,0,0,0,28.06-2.77L909.57,399a22.58,22.58,0,0,0,2.82-29L897.17,348,909,321.48l23.67-4.57A22.64,22.64,0,0,0,951,294.74V271.23a22.63,22.63,0,0,0-18.2-22.15l-24.32-4.83L897.4,218.73l15.15-22.18a22.57,22.57,0,0,0-2.8-28.79L891.69,150a22.6,22.6,0,0,0-28.07-2.92L841,161.55l-25.5-10.74-4.6-24.4A22.59,22.59,0,0,0,788.68,108Z"/><path class="cls-9" d="M776.17,235.76A47,47,0,1,1,758,239.34,47.44,47.44,0,0,1,776.17,235.76Zm0-14a61.53,61.53,0,1,0,23.52,4.68A61.39,61.39,0,0,0,776.17,221.75Z"/></g><g class="cls-13"><path class="cls-9" d="M376.48,185a5,5,0,0,1,4.72,3.31,4.58,4.58,0,0,1,.19.75l3.05,16.2a5,5,0,0,0,3,3.68l18.32,7.72a5.06,5.06,0,0,0,2.37.37,5.19,5.19,0,0,0,2.28-.79l14.83-9.52a5.09,5.09,0,0,1,3.23-.77,5,5,0,0,1,3,1.42l10.67,10.5a5,5,0,0,1,.62,6.38l-10,14.63a5,5,0,0,0-.84,2.34,4.94,4.94,0,0,0,.39,2.46l8,18.36A5,5,0,0,0,443.9,265l16.1,3.2a3.5,3.5,0,0,1,.74.2A5,5,0,0,1,464,273v13.89a5,5,0,0,1-4.06,4.9l-15.68,3a5.1,5.1,0,0,0-2.16,1,5,5,0,0,0-1.46,1.87l-8.47,18.93a5.13,5.13,0,0,0-.42,2.5,5,5,0,0,0,.87,2.39l10.06,14.56a5,5,0,0,1-.62,6.42L431.27,353a5,5,0,0,1-6.22.62l-14.64-9.49a5.1,5.1,0,0,0-2.3-.79,5,5,0,0,0-2.39.38l-18.54,7.91a5,5,0,0,0-2.94,3.61L381.07,371a5,5,0,0,1-4.12,4,5,5,0,0,1-.77.05H361.82a4.85,4.85,0,0,1-.76-.05,5,5,0,0,1-4.12-4l-3.17-15.71a5,5,0,0,0-1-2.17,4.88,4.88,0,0,0-1.92-1.44l-18.55-7.9a5,5,0,0,0-4.69.41l-14.64,9.49a5,5,0,0,1-3.21.78,5.11,5.11,0,0,1-3-1.4l-10.78-10.51a5,5,0,0,1-.62-6.42l10.06-14.57a5,5,0,0,0,.86-2.39,5,5,0,0,0-.41-2.49l-8.48-18.94a5,5,0,0,0-1.46-1.87,5,5,0,0,0-2.16-1l-15.66-3a5,5,0,0,1-4.06-4.91V273.05a5,5,0,0,1,3.26-4.7,4.76,4.76,0,0,1,.74-.2L294.1,265a5.11,5.11,0,0,0,2.16-1,5,5,0,0,0,1.45-1.91l8-18.35a5,5,0,0,0,.39-2.46,5.09,5.09,0,0,0-.84-2.35l-10-14.62a5,5,0,0,1,.62-6.38l10.67-10.5a4.93,4.93,0,0,1,3-1.41,5,5,0,0,1,3.23.76l14.83,9.52a5,5,0,0,0,2.27.79,5.1,5.1,0,0,0,2.38-.37L350.58,209a5,5,0,0,0,1.95-1.47,5.05,5.05,0,0,0,1-2.21l3-16.19a5,5,0,0,1,4.92-4.08Zm-.48-9H361a13.37,13.37,0,0,0-13.13,10.89l-2.72,14.44-15.08,6.34-13.38-8.59a13.36,13.36,0,0,0-16.6,1.72l-10.67,10.53a13.34,13.34,0,0,0-1.66,17l8.94,13.13-6.55,15.09-14.4,2.86A13.38,13.38,0,0,0,265,272.54v13.9a13.36,13.36,0,0,0,10.83,13.11l14,2.71,7,15.66-9,13a13.22,13.22,0,0,0,1.64,17.19l10.91,10.62a12.31,12.31,0,0,0,1.4,1.2,13.44,13.44,0,0,0,15.09.34l13.17-8.53,15.33,6.53,2.82,14A13.37,13.37,0,0,0,361.33,383h14.35a13.25,13.25,0,0,0,13.11-10.78l2.81-14,15.32-6.54,13.18,8.54a13.44,13.44,0,0,0,15.09-.34,12.31,12.31,0,0,0,1.4-1.2l10.87-10.58A13.27,13.27,0,0,0,449.17,331l-9-13,7-15.66,14-2.71A13.36,13.36,0,0,0,472,286.44v-13.9a13.38,13.38,0,0,0-10.76-13.1l-14.39-2.86-6.55-15.09,9-13.12a13.38,13.38,0,0,0,.19-14.78,13.06,13.06,0,0,0-1.9-2.3l-10.63-10.47a13.38,13.38,0,0,0-16.6-1.73l-13.39,8.58-15.08-6.35-2.72-14.43A13.37,13.37,0,0,0,376,176Z"/><path class="cls-9" d="M368.76,251.76A27.86,27.86,0,1,1,358,253.88,28,28,0,0,1,368.76,251.76Zm0-8.27a36.29,36.29,0,1,0,13.89,2.76A36.37,36.37,0,0,0,368.76,243.49Z"/></g><g class="cls-14"><path class="cls-9" d="M697.22,531a4.18,4.18,0,0,1,3.92,2.75,2.69,2.69,0,0,1,.16.62l2.54,13.47a4.15,4.15,0,0,0,2.47,3.07l15.24,6.41a4.06,4.06,0,0,0,2,.31,4.15,4.15,0,0,0,1.89-.65l12.33-7.92a4.2,4.2,0,0,1,5.18.54l8.86,8.74a4.07,4.07,0,0,1,1.22,2.55,4.14,4.14,0,0,1-.7,2.75L744,575.8a4.15,4.15,0,0,0-.71,2,4.25,4.25,0,0,0,.33,2l6.63,15.26a4.09,4.09,0,0,0,1.21,1.58,4,4,0,0,0,1.8.84l13.39,2.66a3.25,3.25,0,0,1,.61.17,4.18,4.18,0,0,1,2.71,3.9v11.55a4.14,4.14,0,0,1-3.37,4.08l-13,2.52a4.17,4.17,0,0,0-3,2.39l-7.05,15.74a4.13,4.13,0,0,0-.34,2.08,4.07,4.07,0,0,0,.72,2l8.36,12.11a4.15,4.15,0,0,1-.52,5.34l-9,8.74a4.16,4.16,0,0,1-2.5,1.16,4.07,4.07,0,0,1-2.67-.65l-12.18-7.89a4.21,4.21,0,0,0-3.9-.34l-15.41,6.58a4,4,0,0,0-1.59,1.2,4.18,4.18,0,0,0-.86,1.8L701,685.66a4.19,4.19,0,0,1-3.43,3.3,4.49,4.49,0,0,1-.64,0H685a4.44,4.44,0,0,1-.63,0,4.18,4.18,0,0,1-3.43-3.3l-2.64-13.06a4.16,4.16,0,0,0-.86-1.81,4.1,4.1,0,0,0-1.6-1.19L660.45,663a4.12,4.12,0,0,0-2-.32,4.2,4.2,0,0,0-1.91.66l-12.17,7.89a4.16,4.16,0,0,1-5.18-.52l-9-8.73a4.15,4.15,0,0,1-.52-5.34l8.36-12.12a4.07,4.07,0,0,0,.72-2,4.13,4.13,0,0,0-.34-2.08l-7.05-15.74a4.12,4.12,0,0,0-1.21-1.56,4.18,4.18,0,0,0-1.8-.83l-13-2.51a4.16,4.16,0,0,1-3.37-4.08V604.22a4.18,4.18,0,0,1,2.71-3.9,3.35,3.35,0,0,1,.62-.17l13.38-2.66a4.14,4.14,0,0,0,1.8-.84,4.09,4.09,0,0,0,1.21-1.58l6.63-15.27a4.11,4.11,0,0,0-.38-4l-8.28-12.17a4.16,4.16,0,0,1,.51-5.29l8.87-8.74a4.16,4.16,0,0,1,5.18-.54L656.58,557a4.15,4.15,0,0,0,1.89.65,4.19,4.19,0,0,0,2-.31l15.23-6.41a4.13,4.13,0,0,0,2.48-3.07l2.52-13.46a4.18,4.18,0,0,1,4.09-3.39Zm0-7H684.78a11.1,11.1,0,0,0-10.91,9l-2.26,12-12.54,5.28-11.2-7.2a10.21,10.21,0,0,0-1.33-.74,11.19,11.19,0,0,0-12.38,2.23l-8.86,8.75a11.08,11.08,0,0,0-1.38,14.15l7.43,10.91L625.9,591l-12,2.37A11.14,11.14,0,0,0,605,604.21v11.56a11.09,11.09,0,0,0,9,10.89l11.64,2.25,5.82,13-7.55,10.94a9.54,9.54,0,0,0-.85,1.44A11.17,11.17,0,0,0,625.37,667l9,8.78a9.25,9.25,0,0,0,1.26,1.07,11.17,11.17,0,0,0,12.48.26l11-7.09,12.73,5.42,2.35,11.65A11.1,11.1,0,0,0,685,696h12a9.49,9.49,0,0,0,1.6-.11,11.16,11.16,0,0,0,9.17-8.79l2.35-11.65L722.92,670l11,7.12a10.2,10.2,0,0,0,1.44.81,11.16,11.16,0,0,0,12.3-2.2l9.07-8.83a9.44,9.44,0,0,0,1.11-1.25,11.16,11.16,0,0,0,.19-12.91l-7.48-10.84,5.82-13L768,626.66a11.09,11.09,0,0,0,9-10.89V604.21a11.14,11.14,0,0,0-8.94-10.88L756.11,591l-5.45-12.54,7.44-10.9a11.15,11.15,0,0,0-.21-12.85,9.62,9.62,0,0,0-1.08-1.22l-9-8.86a9.32,9.32,0,0,0-1.26-1.08,11.15,11.15,0,0,0-12.5-.32l-11.13,7.13L710.4,545l-2.26-12a11.1,11.1,0,0,0-10.91-9Z"/><path class="cls-9" d="M691.22,586.41a23.13,23.13,0,1,1-8.91,1.76A23.25,23.25,0,0,1,691.22,586.41Zm0-6.87a30.09,30.09,0,1,0,11.54,2.29A30,30,0,0,0,691.22,579.54Z"/></g><g class="cls-15"><path class="cls-9" d="M471.67,456.48a60.85,60.85,0,0,1,22.39,4.27L456.59,500.4a7.91,7.91,0,0,0,.31,11.18l22.89,21.63a7.92,7.92,0,0,0,5.66,2.15,7.83,7.83,0,0,0,5.52-2.47l36.92-39.07a61,61,0,0,1-56.22,84.63h-.28a60.6,60.6,0,0,1-22.49-4.39L320.55,702.26A61,61,0,0,1,264,786.13h-.55a60.58,60.58,0,0,1-21-3.91l36.39-38.54a7.91,7.91,0,0,0-.32-11.19l-22.88-21.62a7.91,7.91,0,0,0-11.19.32l-36.31,38.44A60.95,60.95,0,0,1,264,664.16h.28a60.85,60.85,0,0,1,23,4.6L415.36,541l.05,0a61,61,0,0,1,56.15-84.54h.11Zm0-13.16h-.13a74.21,74.21,0,0,0-71.32,94.16L283.76,653.63A74,74,0,0,0,264.35,651H264a74.18,74.18,0,0,0-67.93,103.95l8,18.21,13.66-14.45,32.71-34.62,15.22,14.39-32.78,34.69-13.61,14.38,18.51,7a74,74,0,0,0,25.57,4.77H264a74.24,74.24,0,0,0,71.62-93.48l116.84-116.7a73.73,73.73,0,0,0,18.87,2.49h.33A74.18,74.18,0,0,0,540,488.71l-7.83-18.64-13.88,14.7L485,520l-15.25-14.4,33.86-35.82L517,455.63l-18.12-7.15a73.65,73.65,0,0,0-27.24-5.17Z"/></g><path class="cls-9" d="M192.88,1144.5v23.2H182v-62.56h23.93q10.49,0,16.65,5.46t6.17,14.45q0,9.21-6,14.33t-16.91,5.12Zm0-8.77h13.06q5.81,0,8.85-2.73t3.06-7.88a10.84,10.84,0,0,0-3.1-8.1q-3.09-3-8.51-3.12H192.88Z"/><path class="cls-9" d="M261.59,1130.75a25.87,25.87,0,0,0-4.26-.35q-7.17,0-9.66,5.5v31.8H237.22v-46.49h10l.26,5.2q3.78-6.06,10.49-6.06a9.79,9.79,0,0,1,3.69.6Z"/><path class="cls-9" d="M264.68,1144a27.35,27.35,0,0,1,2.71-12.31,19.76,19.76,0,0,1,7.6-8.42,21.47,21.47,0,0,1,11.26-2.94q9.42,0,15.28,6.06t6.34,16.07l0,2.44a27.67,27.67,0,0,1-2.64,12.29,19.56,19.56,0,0,1-7.57,8.38,21.56,21.56,0,0,1-11.36,3q-9.84,0-15.75-6.56t-5.91-17.46Zm10.44.9q0,7.18,3,11.24a10.35,10.35,0,0,0,16.48-.06q2.94-4.12,2.94-12.08,0-7-3-11.17a10.22,10.22,0,0,0-16.35-.06Q275.13,1136.84,275.12,1144.92Zm14-43.22H301l-11.9,13-8.38,0Z"/><path class="cls-9" d="M332.53,1136.5l8.85-15.29H353l-14.22,22.9,14.7,23.59H341.94l-9.28-15.9-9.24,15.9h-11.6l14.69-23.59-14.18-22.9h11.52Z"/><path class="cls-9" d="M360.12,1109.13a5.52,5.52,0,0,1,1.52-4,5.76,5.76,0,0,1,4.36-1.59,5.83,5.83,0,0,1,4.38,1.59,5.46,5.46,0,0,1,1.55,4,5.32,5.32,0,0,1-1.55,3.93,5.86,5.86,0,0,1-4.38,1.57,5.79,5.79,0,0,1-4.36-1.57A5.38,5.38,0,0,1,360.12,1109.13Zm11.08,58.57H360.76v-46.49H371.2Z"/><path class="cls-9" d="M392.38,1121.21l.31,4.85q4.89-5.71,13.4-5.71,9.33,0,12.76,7.13,5.07-7.14,14.27-7.13,7.69,0,11.45,4.25t3.85,12.55v30.55H438v-30.25c0-3-.64-5.12-1.93-6.49s-3.42-2.06-6.4-2.06a8.7,8.7,0,0,0-5.82,1.91,10,10,0,0,0-3.16,5l0,31.88H410.26v-30.6q-.21-8.2-8.38-8.2-6.27,0-8.89,5.11v33.69H382.54v-46.49Z"/><path class="cls-9" d="M486.92,1167.7a16.33,16.33,0,0,1-1.21-4.34,16.23,16.23,0,0,1-12.2,5.2q-7,0-11.43-4a12.79,12.79,0,0,1-4.43-9.88q0-7.44,5.53-11.41t15.79-4h6.4v-3a8.11,8.11,0,0,0-2-5.78c-1.35-1.45-3.39-2.17-6.14-2.17a9.21,9.21,0,0,0-5.85,1.78,5.52,5.52,0,0,0-2.28,4.53H458.64a11.58,11.58,0,0,1,2.54-7.15,16.91,16.91,0,0,1,6.89-5.22,24.28,24.28,0,0,1,9.74-1.89q8.16,0,13,4.1t5,11.54v21a23.83,23.83,0,0,0,1.76,10v.73Zm-11.48-7.52a11.82,11.82,0,0,0,5.83-1.51,10.08,10.08,0,0,0,4.1-4v-8.77h-5.63c-3.87,0-6.77.67-8.72,2a6.54,6.54,0,0,0-2.92,5.71,6.12,6.12,0,0,0,2,4.8A7.8,7.8,0,0,0,475.44,1160.18Z"/><path class="cls-9" d="M516.56,1121.21l.31,4.85q4.89-5.71,13.4-5.71,9.33,0,12.76,7.13,5.07-7.14,14.27-7.13,7.69,0,11.45,4.25t3.85,12.55v30.55H562.15v-30.25c0-3-.64-5.12-1.93-6.49s-3.42-2.06-6.4-2.06a8.7,8.7,0,0,0-5.82,1.91,10,10,0,0,0-3.16,5l0,31.88H534.44v-30.6q-.21-8.2-8.38-8.2-6.27,0-8.89,5.11v33.69H506.72v-46.49Z"/><path class="cls-9" d="M603.79,1168.56q-9.93,0-16.09-6.25t-6.17-16.65v-1.29a27.9,27.9,0,0,1,2.69-12.44,20.35,20.35,0,0,1,7.54-8.53,19.9,19.9,0,0,1,10.83-3.05q9.49,0,14.67,6.06t5.18,17.14v4.21H592.06a14,14,0,0,0,3.85,9.11,11.55,11.55,0,0,0,8.48,3.35,14.13,14.13,0,0,0,11.69-5.8l5.63,5.37a18.76,18.76,0,0,1-7.46,6.47A23.33,23.33,0,0,1,603.79,1168.56Zm-1.25-39.83a8.79,8.79,0,0,0-6.93,3,15.57,15.57,0,0,0-3.38,8.38h19.9v-.77q-.35-5.25-2.8-7.93A8.71,8.71,0,0,0,602.54,1128.73Z"/><path class="cls-9" d="M640.23,1121.21l.3,5.37a16.7,16.7,0,0,1,13.53-6.23q14.54,0,14.79,16.63v30.72H658.4v-30.12c0-2.95-.63-5.14-1.91-6.56s-3.36-2.12-6.25-2.12a10.05,10.05,0,0,0-9.41,5.71v33.09H630.39v-46.49Z"/><path class="cls-9" d="M692.56,1109.91v11.3h8.21v7.73h-8.21v26a5.73,5.73,0,0,0,1.06,3.85c.7.79,2,1.18,3.76,1.18a15.88,15.88,0,0,0,3.65-.43v8.08a25.7,25.7,0,0,1-6.88,1q-12,0-12-13.28v-26.34h-7.65v-7.73h7.65v-11.3Z"/><path class="cls-9" d="M729.22,1168.56q-9.93,0-16.09-6.25T707,1145.66v-1.29a27.9,27.9,0,0,1,2.68-12.44,20.37,20.37,0,0,1,7.55-8.53,19.84,19.84,0,0,1,10.82-3.05q9.5,0,14.68,6.06t5.18,17.14v4.21H717.49a13.92,13.92,0,0,0,3.84,9.11,11.57,11.57,0,0,0,8.49,3.35,14.14,14.14,0,0,0,11.69-5.8l5.62,5.37a18.73,18.73,0,0,1-7.45,6.47A23.39,23.39,0,0,1,729.22,1168.56ZM728,1128.73a8.81,8.81,0,0,0-6.94,3,15.65,15.65,0,0,0-3.37,8.38h19.89v-.77q-.34-5.25-2.79-7.93A8.73,8.73,0,0,0,728,1128.73Z"/><path class="cls-9" d="M762.47,1156.7a6,6,0,0,1,4.52,1.65,5.77,5.77,0,0,1,1.59,4.15,5.54,5.54,0,0,1-1.59,4.06,7,7,0,0,1-8.94,0,5.44,5.44,0,0,1-1.63-4.08,5.77,5.77,0,0,1,1.59-4.15A5.91,5.91,0,0,1,762.47,1156.7Z"/><path class="cls-9" d="M787.05,1156.7a6,6,0,0,1,4.51,1.65,5.77,5.77,0,0,1,1.59,4.15,5.54,5.54,0,0,1-1.59,4.06,7,7,0,0,1-8.93,0,5.45,5.45,0,0,1-1.64-4.08,5.77,5.77,0,0,1,1.59-4.15A5.92,5.92,0,0,1,787.05,1156.7Z"/><path class="cls-9" d="M811.63,1156.7a6,6,0,0,1,4.51,1.65,5.77,5.77,0,0,1,1.59,4.15,5.54,5.54,0,0,1-1.59,4.06,7,7,0,0,1-8.93,0,5.45,5.45,0,0,1-1.64-4.08,5.77,5.77,0,0,1,1.59-4.15A5.92,5.92,0,0,1,811.63,1156.7Z"/></svg>