<svg id="Capa_2" data-name="Capa 2" xmlns="http://www.w3.org/2000/svg" viewBox="0 0 3000 600"><defs><style>.cls-1{fill:#fff;}</style></defs><title>Logo SYNAgro blanco</title><path class="cls-1" d="M409.15,247.76q-.52-9-1.71-18.5C396,138,376.32,97,366.35,81.33a17.31,17.31,0,0,0-14.61-8c-.39,0-.78,0-1.16,0-32.46,2.14-141.34,17.94-237,131.93-19.85,23.65-32.27,53-33.77,83.81-1.39,28.83,5.4,63.95,35.09,95.6l-1,1.44-.11.19-.23.39-.51.85-1.13,1.77c-.77,1.18-1.59,2.38-2.42,3.58-1.66,2.39-3.41,4.77-5.2,7.13q-5.41,7.08-11.43,13.8a211.45,211.45,0,0,1-26.3,24.87c-2.37,1.91-4.82,3.69-7.28,5.5s-5,3.51-7.59,5.11-5.22,3.18-7.88,4.74c-1.34.74-2.7,1.44-4.06,2.17l-2.05,1.08-2.08,1A134.72,134.72,0,0,1,0,470a139.84,139.84,0,0,0,38.64-2.56l2.42-.49,2.39-.57c1.6-.39,3.21-.76,4.8-1.18,3.17-.91,6.37-1.78,9.5-2.86S64,460.1,67.13,459s6.17-2.48,9.2-3.86a234.56,234.56,0,0,0,35.08-19.53q8.4-5.62,16.41-11.94c2.67-2.11,5.31-4.27,7.92-6.54,1.31-1.13,2.61-2.28,3.92-3.47l2-1.83,1-1,.52-.52.27-.27.59-.81A162,162,0,0,0,207.69,434a172.1,172.1,0,0,0,28.11,2.32C334.45,436.27,415.31,350.31,409.15,247.76ZM139.61,355.42c-15.85-18.35-23-39.61-21.81-64.43,1-21.57,9.89-43.31,24.92-61.22q5.35-6.37,10.75-12.3,42.5-5.19,80.81,3.16c-7.56,8.91-19,24.21-24.8,32.07-9,1-22.69,12.48-33.88,29.45-10.88,16.52-16.2,33.33-14.19,42.49ZM196,296.58a90.68,90.68,0,0,1-16.63,19.26A31,31,0,0,1,171,321.2c-.27-5,2.51-17.64,13-33.54a90.68,90.68,0,0,1,16.63-19.26A30.86,30.86,0,0,1,209,263C209.28,268,206.5,280.68,196,296.58Zm166.63,11.36a140.53,140.53,0,0,1-29.56,47.57,136.78,136.78,0,0,1-43.92,31.34,129.87,129.87,0,0,1-53.38,11.42,135.46,135.46,0,0,1-21.93-1.81,124.06,124.06,0,0,1-55.94-24,130.17,130.17,0,0,1-11.31-9.69l22.11-31.21a4.87,4.87,0,0,0,.54,0c9,0,23.4-11.77,35.11-29.53,11.6-17.61,16.88-35.54,13.7-44.19,9.39-12.7,22.27-29.56,27.14-34.59a220.16,220.16,0,0,1,72.16,35.1A243.14,243.14,0,0,1,363.75,303l.45.57C363.72,305,363.2,306.49,362.66,307.94Zm4.92-16.14a252.25,252.25,0,0,0-43.95-41.2,229.67,229.67,0,0,0-83.7-38.77,246.77,246.77,0,0,0-76-5.41c69.67-70.79,141.85-89.08,176.24-93.76C348.28,130,361.28,166.43,369.73,234c.68,5.4,1.18,10.8,1.49,16.05A140.91,140.91,0,0,1,367.58,291.8Z"/><path class="cls-1" d="M819.26,143.64H668.54c-32.53,0-41.17,1.36-49.13,6.82-8,6.13-11.95,17-11.95,31.36,0,30,11.28,36.82,61.08,36.82h47.9c48.63,0,69.28,4.1,86.6,17.1,19.31,14.37,30.64,43.09,30.64,76.61,0,43.78-18.65,81.4-48,94.4-14,6.84-32,8.89-75.27,8.89H533.26v-61h156.1c27.12,0,41-.68,48.95-3.4,11.91-3.39,17.86-14.26,17.86-31.92,0-18.34-5.95-29.89-18.52-34-5.95-2-16.54-2.72-41.67-2.72h-38.8c-56.69,0-75.37-4.11-94.71-19.86-20.68-18.5-34-50-34-82.88,0-35.62,16-67.81,41.35-83.56,16.68-9.59,37.36-13.7,74-13.7H819.26Z"/><path class="cls-1" d="M1113.26,82.64h75V382.51c0,54.65-10,92.22-31.26,114.76-21.29,21.86-47.22,29.37-106.42,29.37H900.26v-61h149.66c32.89,0,43-1.38,51.68-9,10.07-6.89,12.08-14.47,13.42-42h-87.3c-53.11,0-82.32-10.91-104.89-38.86-18.59-23.86-22.57-43.63-22.57-109.07V82.64h75v190c0,64.24,13.33,82,60,82h78Z"/><path class="cls-1" d="M1420.89,84.64c53.88,0,81.15,9.57,103.1,34.87,18.62,21.2,27.27,52.65,27.27,97.1v201h-75V215.35c0-50.57-17.33-69.71-63.33-69.71h-76.67v272h-75v-333Z"/><path class="cls-1" d="M2275.26,385c0,57.16-4.65,81.08-19.93,99-19.93,23.26-46.5,30.57-107.62,30.57H1992.26v-59h155.61c46.35,0,51.65-4.63,51.65-49h-74.33c-56.55,0-80.5-6-108.44-26.61-37.26-27.28-56.55-72.52-56.55-131.73,0-54.56,17.29-101.13,49.23-130.4,28.61-26.61,57.88-35.26,117.76-35.26h148.07Zm-143.33-243.4c-40.47,0-61,8-75.63,29.19-10.62,17.25-17.92,47.1-17.92,77.62,0,31.85,8,58.38,23.22,75,14.6,16.59,33.18,23.22,66.35,23.22h72.31v-205Z"/><path class="cls-1" d="M2468.44,82.64c53.92,0,79.22,6.14,99.86,25.22,19.3,17.73,26,41.59,26,92v32.74h-72V206.69c0-47.73-13.33-62.05-58-62.05h-26v270h-75v-332Z"/><path class="cls-1" d="M2969,251.53c0,101.08-63.84,162.92-168.91,162.92-105.74,0-166.92-59.85-166.92-162.92,0-105.74,63.84-168.91,170.91-168.91C2908.51,82.62,2969,144.46,2969,251.53Zm-258-.67c0,67.83,31.25,103.74,89.77,103.74,59.19,0,90.44-35.91,90.44-104.4,0-70.49-31.92-107.73-91.77-107.73C2741.6,142.47,2711,180.37,2711,250.86Z"/><path class="cls-1" d="M1802.54,82.64H1615.26v333h75v-105h146v105h76V186.76S1914.34,82.64,1802.54,82.64Zm33.72,169h-146v-110H1802s34.24-1,34.24,45.09Z"/></svg>